<?xml version="1.0" ?><svg viewBox="0 0 40 40" xmlns="http://www.w3.org/2000/svg"><g id="Logos"><g id="NASA"><path d="M10.43,22c.09.35.24.49.51.49s.42-.17.42-.49V16h1.72v6a1.93,1.93,0,0,1-.54,1.64,2.3,2.3,0,0,1-1.59.54,2.13,2.13,0,0,1-1.49-.54A3.12,3.12,0,0,1,8.71,22L7.65,18c-.09-.35-.24-.49-.51-.49s-.42.17-.42.49v6H5V18a1.93,1.93,0,0,1,.54-1.64,2.32,2.32,0,0,1,1.59-.54,2.15,2.15,0,0,1,1.5.54A3.14,3.14,0,0,1,9.37,18Z"/><path d="M33.22,24l-2-6.22a.54.54,0,0,0-.07-.17.33.33,0,0,0-.24-.1.31.31,0,0,0-.23.1.54.54,0,0,0-.07.17l-2,6.22H26.85L29,17.2a2,2,0,0,1,.48-.86,1.87,1.87,0,0,1,1.42-.52,1.9,1.9,0,0,1,1.43.52,2.2,2.2,0,0,1,.48.86L35,24Z"/><path d="M24.41,24a2.7,2.7,0,0,0,2.12-.67,2.3,2.3,0,0,0,.71-1.78,2.42,2.42,0,0,0-.64-1.71,2.76,2.76,0,0,0-2.15-.66H23c-.55,0-.77-.07-.94-.24a.65.65,0,0,1-.17-.49.78.78,0,0,1,.19-.56.87.87,0,0,1,.64-.18h4.13V16H23.07a2.7,2.7,0,0,0-2.12.67,2.3,2.3,0,0,0-.71,1.78,2.42,2.42,0,0,0,.64,1.71,2.76,2.76,0,0,0,2.15.66h1.42c.55,0,.77.07.94.24a.65.65,0,0,1,.17.49.78.78,0,0,1-.19.56.86.86,0,0,1-.64.18H20.47l-1.63-5.1a2,2,0,0,0-.48-.86,1.87,1.87,0,0,0-1.42-.52,1.9,1.9,0,0,0-1.43.52,2.2,2.2,0,0,0-.48.86L12.86,24h1.78l2-6.22a.38.38,0,0,1,.08-.17.31.31,0,0,1,.46,0,.54.54,0,0,1,.07.17l2,6.22Z"/></g></g></svg>